<svg width="1280" height="860" viewBox="0 0 1280 860" fill="none" xmlns="http://www.w3.org/2000/svg">
  <rect width="1280" height="860" rx="64" fill="#FFF7ED"/>
  <rect x="96" y="92" width="1088" height="676" rx="48" fill="#FFFFFF" stroke="#FED7AA" stroke-width="3"/>
  <rect x="156" y="152" width="968" height="96" rx="32" fill="#FFEDD5"/>
  <rect x="204" y="188" width="220" height="24" rx="12" fill="#EA580C"/>
  <rect x="156" y="316" width="460" height="368" rx="44" fill="#F97316"/>
  <rect x="216" y="386" width="300" height="34" rx="17" fill="#FFFFFF"/>
  <rect x="216" y="466" width="240" height="34" rx="17" fill="#FFFFFF" fill-opacity="0.82"/>
  <rect x="216" y="546" width="332" height="34" rx="17" fill="#FFFFFF" fill-opacity="0.7"/>
  <rect x="676" y="316" width="448" height="112" rx="32" fill="#FFF7ED" stroke="#FDBA74" stroke-width="2"/>
  <rect x="676" y="472" width="448" height="112" rx="32" fill="#FFF7ED" stroke="#FDBA74" stroke-width="2"/>
  <rect x="676" y="628" width="290" height="56" rx="28" fill="#EA580C"/>
  <path d="M744 372H982M744 528H1038" stroke="#9A3412" stroke-width="22" stroke-linecap="round"/>
  <text x="216" y="642" fill="#FFFFFF" font-family="Arial, sans-serif" font-size="58" font-weight="800">Atlacarte</text>
</svg>
