<svg width="1280" height="860" viewBox="0 0 1280 860" fill="none" xmlns="http://www.w3.org/2000/svg">
  <rect width="1280" height="860" rx="64" fill="#111827"/>
  <circle cx="318" cy="288" r="156" fill="#7C3AED" fill-opacity="0.32"/>
  <circle cx="938" cy="556" r="190" fill="#0EA5E9" fill-opacity="0.24"/>
  <rect x="126" y="108" width="1028" height="644" rx="52" fill="#0F172A" stroke="#334155" stroke-width="2"/>
  <rect x="190" y="180" width="352" height="500" rx="42" fill="#1E293B"/>
  <rect x="604" y="180" width="486" height="132" rx="36" fill="#1E293B"/>
  <rect x="604" y="360" width="486" height="132" rx="36" fill="#1E293B"/>
  <rect x="604" y="540" width="320" height="76" rx="38" fill="#7C3AED"/>
  <circle cx="366" cy="352" r="96" fill="#CBD5E1"/>
  <path d="M262 608C286 534 326 498 366 498C406 498 446 534 470 608" stroke="#CBD5E1" stroke-width="30" stroke-linecap="round"/>
  <path d="M674 246H968M674 426H1012" stroke="#E0E7FF" stroke-width="24" stroke-linecap="round"/>
  <path d="M674 580H830" stroke="#FFFFFF" stroke-width="24" stroke-linecap="round"/>
  <text x="190" y="740" fill="#F8FAFC" font-family="Arial, sans-serif" font-size="48" font-weight="800">Partnership</text>
</svg>
