<svg width="1280" height="860" viewBox="0 0 1280 860" fill="none" xmlns="http://www.w3.org/2000/svg">
  <rect width="1280" height="860" rx="64" fill="#020617"/>
  <rect x="92" y="88" width="1096" height="684" rx="44" fill="#0F172A" stroke="#334155" stroke-width="2"/>
  <rect x="140" y="140" width="1000" height="92" rx="28" fill="#1E293B"/>
  <rect x="184" y="172" width="148" height="28" rx="14" fill="#F8FAFC"/>
  <rect x="376" y="172" width="92" height="28" rx="14" fill="#64748B"/>
  <rect x="500" y="172" width="92" height="28" rx="14" fill="#64748B"/>
  <rect x="140" y="288" width="412" height="376" rx="36" fill="#111827"/>
  <rect x="600" y="288" width="540" height="132" rx="32" fill="#111827"/>
  <rect x="600" y="464" width="250" height="200" rx="32" fill="#111827"/>
  <rect x="890" y="464" width="250" height="200" rx="32" fill="#111827"/>
  <path d="M214 524L314 424L420 482L496 390" stroke="#38BDF8" stroke-width="22" stroke-linecap="round" stroke-linejoin="round"/>
  <path d="M668 352H932M668 548H770M958 548H1044" stroke="#E0E7FF" stroke-width="24" stroke-linecap="round"/>
  <circle cx="1068" cy="186" r="22" fill="#7DD3FC"/>
  <circle cx="1012" cy="186" r="22" fill="#A78BFA"/>
  <text x="184" y="610" fill="#E2E8F0" font-family="Arial, sans-serif" font-size="56" font-weight="800">VIDA</text>
</svg>
