<svg width="960" height="1200" viewBox="0 0 960 1200" fill="none" xmlns="http://www.w3.org/2000/svg">
  <rect width="960" height="1200" rx="64" fill="#0F172A"/>
  <rect x="96" y="120" width="768" height="960" rx="40" fill="#111827" stroke="#334155" stroke-width="2"/>
  <rect x="136" y="172" width="688" height="84" rx="24" fill="#1E293B"/>
  <circle cx="176" cy="214" r="12" fill="#A78BFA"/>
  <circle cx="216" cy="214" r="12" fill="#38BDF8"/>
  <circle cx="256" cy="214" r="12" fill="#22C55E"/>
  <rect x="136" y="312" width="312" height="280" rx="32" fill="#312E81"/>
  <rect x="496" y="312" width="328" height="120" rx="28" fill="#1E293B"/>
  <rect x="496" y="472" width="328" height="120" rx="28" fill="#1E293B"/>
  <rect x="136" y="652" width="688" height="88" rx="24" fill="#0EA5E9" fill-opacity="0.24"/>
  <rect x="136" y="784" width="204" height="176" rx="28" fill="#1E293B"/>
  <rect x="378" y="784" width="204" height="176" rx="28" fill="#1E293B"/>
  <rect x="620" y="784" width="204" height="176" rx="28" fill="#1E293B"/>
  <path d="M216 456H368M216 504H320" stroke="#E0E7FF" stroke-width="28" stroke-linecap="round"/>
  <path d="M548 360H756M548 520H720M196 696H624" stroke="#CBD5E1" stroke-width="18" stroke-linecap="round"/>
</svg>
